<?xml version="1.0" encoding="UTF-8"?>
<svg id="Layer_2" data-name="Layer 2" xmlns="http://www.w3.org/2000/svg" viewBox="0 0 489.85 547.53">
  <defs>
    <style>
      .cls-1 {
        fill: #137dbf;
      }

      .cls-1, .cls-2 {
        stroke-width: 0px;
      }

      .cls-2 {
        fill: #173e5b;
      }
    </style>
  </defs>
  <g id="Layer_1-2" data-name="Layer 1">
    <g>
      <path class="cls-1" d="M105.03,234.96c3.14,1.87,3.28-1.51,4.08-2.71,16.09-24.23,37.05-42.91,63.08-55.89,64.49-32.17,143.91-16.28,190.81,38.45,35.24,41.12,47.6,88.79,34.87,141.11-14.53,59.7-52.65,99.57-111.79,116.47-69.91,19.98-139.31-7.61-178.69-68.85-12.69-19.73-20.01-41.49-22.89-64.84-3.22-26.15-.25-51.46,9.36-75.93,1.84-4.68-1.6-4.09-3.74-5.13,1.15-.01,2.31.05,3.45-.05,10.51-.85,15.7-6.22,12.49-16.38-.62-1.96-1.71-4-1.04-6.24ZM300.35,177.96c-2.11-.9-4.17-1.94-6.33-2.69-24.88-8.59-50.29-10.98-76.29-6.57-39.52,6.71-71.4,26.18-96.17,57.54-.82,1.04-2.13,2.07-1.65,3.44.65,1.86,2.56,1.13,3.94,1.15,6.66.1,13.34-.17,19.99.21,7.32.41,12.27,6.18,12.04,13.33-.22,6.78-5.54,12.01-12.58,12.33-2.33.1-4.69-.13-6.99.18-5.4.71-9.33,3.53-10.98,8.86-1.63,5.28-.22,9.88,3.87,13.58,3.2,2.89,7.19,3.19,11.24,3.2,16.5.03,33-.05,49.49.12,8.5.09,13.97,6.58,12.89,14.79-.86,6.53-6.22,10.88-13.97,10.95-13.16.11-26.33,0-39.49.05-7.56.03-13.26,5.54-13.28,12.66-.02,7.11,5.15,12.36,12.66,12.77,1.99.11,4,.03,6,.03,34.16,0,68.32,0,102.48,0,5.19,0,10.03.89,13.25,5.46,2.91,4.13,3.38,8.72,1.13,13.25-2.54,5.1-6.96,7.35-12.62,7.35-19.5-.01-38.99-.02-58.49.02-8.61.02-14.2,4.96-14.35,12.55-.15,7.65,5.7,12.93,14.52,13,8,.07,16-.06,23.99.13,6.02.14,10.57,3.51,12.21,8.58,2.9,8.95-3.11,17.09-13.05,17.2-14.83.18-29.66.02-44.49.08-8.09.03-13.87,5.31-13.82,12.54.05,6.89,5.18,13.29,13.47,12.89,5.65-.27,11.33-.18,16.99.02,7.41.26,12.65,5.12,13.13,11.84.51,7.17-3.46,12.31-10.78,13.94-1.26.28-2.71.03-3.68,1.42.44.22.81.46,1.23.61.94.33,1.89.65,2.84.92,23.25,6.72,46.79,8.3,70.66,4.01,37.59-6.74,68.33-25.13,92.59-54.52.72-.87,1.91-1.67,1.14-2.97-.57-.98-1.77-.7-2.74-.7-5.83-.02-11.67.13-17.5-.05-7.8-.24-13.19-5.56-13.25-12.77-.06-7.57,5.29-12.84,13.32-13.11,2-.07,4,.05,6-.08,3.84-.25,7.07-1.84,9.44-4.89,3.01-3.87,3.75-8.3,1.79-12.72-2.33-5.28-6.71-7.95-12.55-7.96-17.33-.02-34.66.04-51.99-.03-9.24-.04-14.9-6.3-13.78-15.01.9-6.99,6.2-10.96,14.87-10.96,31-.03,61.99-.1,92.98.09,4.08.02,5.82-1.16,5.81-5.17,0-5-.1-10.01.26-14.98.32-4.48-1.46-5.56-5.76-5.55-52.49.15-104.98.12-157.47.13-3.17,0-6.34.09-9.5-.05-7.4-.32-13.02-6.16-12.87-13.23.15-7.04,5.46-12.28,12.88-12.53,4.16-.14,8.33-.07,12.5-.07,11-.01,22,.14,32.99-.06,8.25-.15,13.79-5.5,13.78-12.74,0-7.55-5.75-12.87-14.06-12.99-3.17-.04-6.34.14-9.49-.09-7.3-.52-12.48-6.7-11.89-13.97.58-7.11,5.98-11.74,14.21-11.8,14.83-.11,29.66.03,44.49-.11,8.18-.08,13.41-5.36,13.32-13.01-.08-7.14-5.58-12.29-13.46-12.46-5.16-.11-10.33.07-15.5-.05-8.64-.19-14.09-5.25-14.11-12.91-.01-7.68,5.36-12.56,14.07-12.85,3.42-.11,6.91.53,10.45-1.54Z"/>
      <path class="cls-2" d="M105.03,234.96c-.67,2.24.42,4.28,1.04,6.24,3.22,10.16-1.98,15.54-12.49,16.38-1.15.09-2.31.03-3.45.05-9.14-1.98-12.16-6.65-10.48-15.53,2.76-14.55,5.28-29.15,8.01-43.71.46-2.47-.25-3.86-2.27-5.42-9.54-7.37-9.1-19.2,1.06-25.75,2.7-1.74,2.76-3.79,2.74-6.32-.29-35.32-.56-70.64-.84-105.96-.01-1.83.14-3.69-.07-5.49-.42-3.57,1.11-4.58,4.54-4.56,12.66.06,25.32-.2,37.99-.21,3.57,0,6.86-.66,10.17-2.03C174.33,28.83,207.74,15.16,241.05,1.22c4.43-1.86,8.08-1.47,12.32.34,63.64,27.23,127.33,54.35,191.01,81.48,15.13,6.45,30.29,12.84,45.47,19.27-.69,2.26-2.54,2.24-4.06,2.69-37.98,11.22-75.96,22.42-113.93,33.65-6.68,1.98-6.66,2.03-6.68-5.03-.02-6.5-.09-13-.08-19.49,0-1.92-.32-3.44-1.99-4.78-24.69-19.68-51.23-35.86-82.18-43.81-35.77-9.19-69.98-4.55-102.9,11.59-17.15,8.41-32.55,19.43-47.14,31.66-1.89,1.59-2.46,3.32-2.42,5.63.16,8.16-.03,16.34.4,24.49.22,4.16-1.33,4.48-4.6,3.46-6.99-2.18-14.06-4.12-21.01-6.43-3.32-1.1-4.53-.53-4.28,3.14.55,8.31.92,16.63,1.22,24.95.07,2.01,1.28,2.82,2.59,3.89,9.17,7.45,8.8,18.89-.98,25.56-2.16,1.47-2.73,2.81-2.31,5.3,1.87,11.16,3.55,22.35,5.29,33.53,0,0,0-.09,0-.09.07.91.15,1.82.22,2.74Z"/>
      <path class="cls-2" d="M151.12,141.65c0-6.66.03-13.32-.02-19.99-.01-2.06.16-3.8,2.03-5.27,27.28-21.32,57.2-35.81,92.67-35.83,27.64-.01,52.51,9.2,75.77,23.4,6.38,3.89,12.35,8.44,18.6,12.54,2.49,1.63,3.44,3.61,3.41,6.61-.15,12.99-.21,25.98,0,38.97.07,4.62-1.4,4.36-4.91,2.83-32.93-14.4-67.2-22.34-103.33-20.57-27.95,1.37-54.48,8.56-79.73,20.52-3.5,1.66-4.71,1.45-4.56-2.74.23-6.82.06-13.65.06-20.48Z"/>
      <path class="cls-2" d="M138.79,492.08c-2.26-1.31-4.92-1.92-7.2-1.47-4.86.96-7.86-1.38-10.8-4.55-4.87-5.25-9.53-10.65-13.9-16.33-2.09-2.72-2.07-4.39,1.48-5.25-.26-.53-.33-.98-.56-1.1-13.6-6.74-16.99-20.58-22.76-32.75-.4-.84-.71-2.5-.31-2.82,4.58-3.6.57-5.76-1.51-7.61-4.8-4.29-5.13-10.26-6.66-15.79-2.98-10.78-4.67-21.79-5.82-32.89-.17-1.64-1.27-4.18,1.04-4.78,2.25-.58,2.65,2.14,3.35,3.65,10.49,22.48,23.87,43.03,40.93,61.1,26.7,28.26,58.75,47.23,97.04,54.84,18.59,3.69,37.39,3.93,56.16.8,6.81-1.14,6.9-1.11,7.67,5.64.48,4.2,1.63,8.22,3.62,11.85,8.05,14.73,1.32,32.51-15.05,38.93-4.99,1.95-10.14,3.2-15.44,3.83-1.2.14-2.84.65-3.23-1.31-.3-1.49.96-2.01,1.94-2.58,3.58-2.11,7.22-4.11,10.78-6.26,1.21-.73,3.18-1.43,2.73-3.1-.54-2.04-2.55-.82-3.85-.74-15.15,1.02-30.28,1.26-45.36-1.06-29.41-4.53-55.88-15.76-79.13-34.42-1.01-.81-2.49-1.51-2.11-3.07.46-1.88,2.22-1.66,3.7-1.77,1.12-.08,2.37.19,3.27-.98Z"/>
      <path class="cls-2" d="M409.8,378.56c-1.71,9.26-.58,19.54-7.5,27.69-.48.57-.99,1.97-.76,2.16,4.87,4.25.54,8.38-.59,12.06-1.96,6.38-3.25,13.36-9.12,17.86-.48.37-.91,1.04-1,1.63-1.76,11.03-7.28,19.96-15.89,25.56-.82.53-2.22,1.04-1.6,2.11,2.05,3.54-.91,5.29-2.57,7.24-20.45,24.03-45.92,40.62-75.77,50.58-1.52.51-3.43,1.52-4.65-.06-1.28-1.66.41-3.14,1.31-4.41,6.06-8.55,11.85-17.32,19.39-24.69,4.73-4.63,9.92-8.43,17.1-7.89,1.36.1,2.78.14,2.03-2.1-1.92-5.74-5.87-8.75-12.13-9.08-.67-.03-1.33-.07-1.99-.13-1.34-.12-2.92-.13-3.21-1.76-.28-1.61,1.18-2.21,2.39-2.78,8.28-3.95,16.09-8.67,23.59-13.95,25.38-17.85,44.81-40.93,59.85-67.88,2.51-4.5,4.78-9.14,7.18-13.7.61-1.15,1.09-2.75,2.82-2.17,1.65.56,1.11,2.18,1.13,3.73Z"/>
      <path class="cls-2" d="M0,100.69c13.44-4.88,26.36-9.58,39.29-14.26,7.2-2.6,14.45-5.07,21.6-7.8,3.38-1.29,4.37-.46,4.33,3.13-.16,12.99-.09,25.99-.06,38.98,0,2.24-.02,4.28-3.19,3.13-20.32-7.39-40.63-14.79-60.94-22.2-.14-.05-.24-.22-1.03-1Z"/>
      <polygon class="cls-1" points="104.81 232.23 104.81 232.32 105.2 232.27 104.81 232.23"/>
      <path class="cls-1" d="M297.25,385.65c2.82,0,5.67-.2,8.47.04,6.74.57,11.79,6.02,11.87,12.54.07,6.4-4.93,12.51-11.41,13.01-5.94.46-11.98.48-17.92-.02-7.01-.59-11.81-6.49-11.57-13.27.23-6.73,5.44-11.9,12.59-12.33,2.65-.16,5.32-.03,7.98-.03,0,.02,0,.04,0,.06Z"/>
      <path class="cls-1" d="M186.71,256.71c-3.27-.35-7.62.79-11.73-1.43-4.98-2.69-7.67-7.3-7.09-13.07.49-4.95,4.1-9.47,9.18-10.58,6.7-1.47,13.58-1.29,20.28-.2,6.42,1.04,10.37,7.08,9.81,13.56-.56,6.51-5.43,11.3-12.02,11.69-2.48.15-4.98.02-8.43.02Z"/>
    </g>
  </g>
</svg>